<mxfile host="app.diagrams.net" agent="Mozilla/5.0 (Windows NT 10.0; Win64; x64) AppleWebKit/537.36 (KHTML, like Gecko) Chrome/132.0.0.0 Safari/537.36" version="26.0.11">
  <diagram name="Страница — 1" id="UK1dN_PtLqfpij_CfqP0">
    <mxGraphModel grid="1" page="1" gridSize="10" guides="1" tooltips="1" connect="1" arrows="1" fold="1" pageScale="1" pageWidth="827" pageHeight="1169" math="0" shadow="0">
      <root>
        <mxCell id="0" />
        <mxCell id="1" parent="0" />
        <mxCell id="p7SZA3qrHcQrK9wnZmaH-15" value="" style="edgeStyle=orthogonalEdgeStyle;rounded=0;orthogonalLoop=1;jettySize=auto;html=1;" edge="1" parent="1" source="p7SZA3qrHcQrK9wnZmaH-5" target="p7SZA3qrHcQrK9wnZmaH-13">
          <mxGeometry relative="1" as="geometry" />
        </mxCell>
        <mxCell id="p7SZA3qrHcQrK9wnZmaH-5" value="&lt;div style=&quot;&quot;&gt;&lt;pre style=&quot;font-family: &amp;quot;JetBrains Mono&amp;quot;, monospace;&quot;&gt;&lt;span&gt;&lt;font style=&quot;color: rgb(14, 14, 14); line-height: 90%; font-size: 10px;&quot;&gt;public interface IItemInteractable {&lt;br&gt;    void pickUpItem(Item item);&lt;br&gt;}&lt;/font&gt;&lt;/span&gt;&lt;/pre&gt;&lt;/div&gt;" style="rounded=0;whiteSpace=wrap;html=1;align=left;" vertex="1" parent="1">
          <mxGeometry y="195" width="200" height="40" as="geometry" />
        </mxCell>
        <mxCell id="p7SZA3qrHcQrK9wnZmaH-14" value="" style="edgeStyle=orthogonalEdgeStyle;rounded=0;orthogonalLoop=1;jettySize=auto;html=1;" edge="1" parent="1" source="p7SZA3qrHcQrK9wnZmaH-6" target="p7SZA3qrHcQrK9wnZmaH-13">
          <mxGeometry relative="1" as="geometry" />
        </mxCell>
        <mxCell id="p7SZA3qrHcQrK9wnZmaH-6" value="&lt;div&gt;&lt;pre style=&quot;font-family: &amp;quot;JetBrains Mono&amp;quot;, monospace;&quot;&gt;&lt;font style=&quot;line-height: 90%; color: rgb(0, 0, 0); font-size: 10px;&quot;&gt;&lt;span style=&quot;color: rgb(207, 142, 109);&quot;&gt;public interface &lt;/span&gt;IDamageable {&lt;br&gt;    &lt;span style=&quot;color: rgb(207, 142, 109);&quot;&gt;void &lt;/span&gt;&lt;span style=&quot;color: rgb(86, 168, 245);&quot;&gt;takeDamage&lt;/span&gt;(&lt;span style=&quot;color: rgb(207, 142, 109);&quot;&gt;int &lt;/span&gt;damage);&lt;br&gt;}&lt;/font&gt;&lt;/pre&gt;&lt;/div&gt;" style="rounded=0;whiteSpace=wrap;html=1;align=left;" vertex="1" parent="1">
          <mxGeometry x="20" y="120" width="180" height="40" as="geometry" />
        </mxCell>
        <mxCell id="p7SZA3qrHcQrK9wnZmaH-12" value="" style="edgeStyle=orthogonalEdgeStyle;rounded=0;orthogonalLoop=1;jettySize=auto;html=1;" edge="1" parent="1" source="p7SZA3qrHcQrK9wnZmaH-7" target="p7SZA3qrHcQrK9wnZmaH-11">
          <mxGeometry relative="1" as="geometry" />
        </mxCell>
        <mxCell id="p7SZA3qrHcQrK9wnZmaH-7" value="&lt;div&gt;&lt;pre style=&quot;font-family: &amp;quot;JetBrains Mono&amp;quot;, monospace;&quot;&gt;&lt;font style=&quot;line-height: 90%; color: rgb(31, 31, 31); font-size: 10px;&quot;&gt;&lt;span style=&quot;color: rgb(207, 142, 109);&quot;&gt;public interface &lt;/span&gt;IAttackable {&lt;br&gt;    &lt;span style=&quot;color: rgb(207, 142, 109);&quot;&gt;void &lt;/span&gt;&lt;span style=&quot;color: rgb(86, 168, 245);&quot;&gt;attack&lt;/span&gt;(Player player);&lt;br&gt;}&lt;/font&gt;&lt;/pre&gt;&lt;/div&gt;" style="rounded=0;whiteSpace=wrap;html=1;align=left;" vertex="1" parent="1">
          <mxGeometry x="820" y="150" width="170" height="45" as="geometry" />
        </mxCell>
        <mxCell id="p7SZA3qrHcQrK9wnZmaH-11" value="&lt;pre style=&quot;&quot;&gt;&lt;div style=&quot;font-family: &amp;quot;JetBrains Mono&amp;quot;, monospace; text-align: left;&quot;&gt;&lt;font style=&quot;font-size: 11px;&quot;&gt;&lt;span style=&quot;white-space: normal;&quot;&gt;Enemy&lt;/span&gt;&lt;/font&gt;&lt;/div&gt;&lt;div style=&quot;font-family: &amp;quot;JetBrains Mono&amp;quot;, monospace;&quot;&gt;&lt;div style=&quot;text-align: left;&quot;&gt;&lt;font&gt;&lt;span style=&quot;font-size: 11px; background-color: transparent; white-space: normal;&quot;&gt;&amp;nbsp;- &lt;/span&gt;&lt;span style=&quot;font-size: 11px; background-color: transparent; white-space: normal;&quot; class=&quot;hljs-keyword&quot;&gt;type&lt;/span&gt;&lt;span style=&quot;font-size: 11px; background-color: transparent; white-space: normal;&quot;&gt;: String&amp;nbsp; &amp;nbsp; &amp;nbsp; &amp;nbsp; &amp;nbsp; &amp;nbsp; &amp;nbsp; &amp;nbsp;&lt;/span&gt;&lt;/font&gt;&lt;/div&gt;&lt;font style=&quot;font-size: 11px;&quot;&gt;&lt;div style=&quot;text-align: left;&quot;&gt;&lt;span style=&quot;background-color: transparent; white-space: normal;&quot;&gt;&amp;nbsp;- health: &lt;/span&gt;&lt;span style=&quot;background-color: transparent; white-space: normal;&quot; class=&quot;hljs-type&quot;&gt;int&lt;/span&gt;&lt;span style=&quot;background-color: transparent; white-space: normal;&quot;&gt;&amp;nbsp; &amp;nbsp; &amp;nbsp; &amp;nbsp; &amp;nbsp; &amp;nbsp; &amp;nbsp; &amp;nbsp;&amp;nbsp;&lt;/span&gt;&lt;/div&gt;&lt;div style=&quot;text-align: left;&quot;&gt;&lt;span style=&quot;background-color: transparent; white-space: normal;&quot;&gt;&amp;nbsp;- damage: &lt;/span&gt;&lt;span style=&quot;background-color: transparent; white-space: normal;&quot; class=&quot;hljs-type&quot;&gt;int&lt;/span&gt;&lt;span style=&quot;background-color: transparent; white-space: normal;&quot;&gt;&amp;nbsp; &amp;nbsp; &amp;nbsp; &amp;nbsp; &amp;nbsp; &amp;nbsp; &amp;nbsp; &amp;nbsp;&amp;nbsp;&lt;/span&gt;&lt;/div&gt;&lt;/font&gt;&lt;/div&gt;&lt;div style=&quot;&quot;&gt;&lt;div style=&quot;text-align: left;&quot;&gt;&lt;font face=&quot;JetBrains Mono, monospace&quot;&gt;&lt;span style=&quot;font-size: 11px;&quot;&gt;&lt;br&gt;&lt;/span&gt;&lt;/font&gt;&lt;/div&gt;&lt;font style=&quot;font-family: &amp;quot;JetBrains Mono&amp;quot;, monospace; font-size: 11px;&quot;&gt;&lt;div style=&quot;text-align: left;&quot;&gt;&lt;span style=&quot;background-color: transparent; white-space: normal;&quot;&gt;&amp;nbsp;+ attack(player: Player): &lt;/span&gt;&lt;span style=&quot;background-color: transparent; white-space: normal;&quot; class=&quot;hljs-type&quot;&gt;void&lt;/span&gt;&lt;span style=&quot;background-color: transparent; white-space: normal;&quot;&gt;&amp;nbsp;&lt;/span&gt;&lt;/div&gt;&lt;div style=&quot;text-align: left;&quot;&gt;&lt;span style=&quot;background-color: transparent; white-space: normal;&quot;&gt;&amp;nbsp;+ takeDamage(dmg: &lt;/span&gt;&lt;span style=&quot;background-color: transparent; white-space: normal;&quot; class=&quot;hljs-type&quot;&gt;int&lt;/span&gt;&lt;span style=&quot;background-color: transparent; white-space: normal;&quot;&gt;): &lt;/span&gt;&lt;span style=&quot;background-color: transparent; white-space: normal;&quot; class=&quot;hljs-type&quot;&gt;void&lt;/span&gt;&lt;span style=&quot;background-color: transparent; white-space: normal;&quot;&gt;&amp;nbsp;&amp;nbsp;&lt;/span&gt;&lt;/div&gt;&lt;div style=&quot;text-align: left;&quot;&gt;&lt;span style=&quot;background-color: transparent; white-space: normal;&quot;&gt;&amp;nbsp;+ getType(): String&lt;/span&gt;&lt;/div&gt;&lt;/font&gt;&lt;/div&gt;&lt;/pre&gt;" style="rounded=0;whiteSpace=wrap;html=1;" vertex="1" parent="1">
          <mxGeometry x="510" y="160" width="201" height="110" as="geometry" />
        </mxCell>
        <mxCell id="p7SZA3qrHcQrK9wnZmaH-13" value="&lt;div style=&quot;&quot;&gt;&lt;pre style=&quot;font-family: &amp;quot;JetBrains Mono&amp;quot;, monospace;&quot;&gt;&lt;font style=&quot;font-size: 10px;&quot;&gt;&lt;span&gt;&lt;font style=&quot;line-height: 110%; color: rgb(0, 0, 0);&quot;&gt;Player&lt;br&gt;&lt;/font&gt;&lt;/span&gt;- health: &lt;span style=&quot;background-color: transparent; color: light-dark(rgb(0, 0, 0), rgb(255, 255, 255)); font-family: Helvetica; white-space: normal;&quot; class=&quot;hljs-type&quot;&gt;int&lt;/span&gt;&lt;span style=&quot;background-color: transparent; color: light-dark(rgb(0, 0, 0), rgb(255, 255, 255)); font-family: Helvetica; white-space: normal;&quot;&gt;&lt;br&gt;&amp;nbsp;- experience: &lt;/span&gt;&lt;span style=&quot;background-color: transparent; color: light-dark(rgb(0, 0, 0), rgb(255, 255, 255)); font-family: Helvetica; white-space: normal;&quot; class=&quot;hljs-type&quot;&gt;int&lt;/span&gt;&lt;span style=&quot;background-color: transparent; color: light-dark(rgb(0, 0, 0), rgb(255, 255, 255)); font-family: Helvetica; white-space: normal;&quot;&gt;&amp;nbsp;&lt;br&gt;&amp;nbsp;- inventory: List&amp;lt;Item&amp;gt;&amp;nbsp;&lt;/span&gt;&lt;/font&gt;&lt;/pre&gt;&lt;pre style=&quot;font-family: &amp;quot;JetBrains Mono&amp;quot;, monospace;&quot;&gt;&lt;font style=&quot;font-size: 10px;&quot;&gt;&lt;span style=&quot;background-color: transparent; color: light-dark(rgb(0, 0, 0), rgb(255, 255, 255)); font-family: Helvetica; white-space: normal;&quot;&gt;&lt;br&gt;&amp;nbsp;+ takeDamage(dmg: &lt;/span&gt;&lt;span style=&quot;background-color: transparent; color: light-dark(rgb(0, 0, 0), rgb(255, 255, 255)); font-family: Helvetica; white-space: normal;&quot; class=&quot;hljs-type&quot;&gt;int&lt;/span&gt;&lt;span style=&quot;background-color: transparent; color: light-dark(rgb(0, 0, 0), rgb(255, 255, 255)); font-family: Helvetica; white-space: normal;&quot;&gt;): &lt;/span&gt;&lt;span style=&quot;background-color: transparent; color: light-dark(rgb(0, 0, 0), rgb(255, 255, 255)); font-family: Helvetica; white-space: normal;&quot; class=&quot;hljs-type&quot;&gt;void&lt;/span&gt;&lt;span style=&quot;background-color: transparent; color: light-dark(rgb(0, 0, 0), rgb(255, 255, 255)); font-family: Helvetica; white-space: normal;&quot;&gt;&amp;nbsp;&lt;br&gt;&amp;nbsp;+ pickUpItem(item: Item): &lt;/span&gt;&lt;span style=&quot;background-color: transparent; color: light-dark(rgb(0, 0, 0), rgb(255, 255, 255)); font-family: Helvetica; white-space: normal;&quot; class=&quot;hljs-type&quot;&gt;void&lt;/span&gt;&lt;span style=&quot;background-color: transparent; color: light-dark(rgb(0, 0, 0), rgb(255, 255, 255)); font-family: Helvetica; white-space: normal;&quot;&gt;&amp;nbsp;&lt;br&gt;&amp;nbsp;+ attack(enemy: IAttackable): &lt;/span&gt;&lt;span style=&quot;background-color: transparent; color: light-dark(rgb(0, 0, 0), rgb(255, 255, 255)); font-family: Helvetica; white-space: normal;&quot; class=&quot;hljs-type&quot;&gt;void&lt;/span&gt;&lt;/font&gt;&lt;/pre&gt;&lt;/div&gt;" style="rounded=0;whiteSpace=wrap;html=1;align=left;" vertex="1" parent="1">
          <mxGeometry x="253" y="140" width="161" height="130" as="geometry" />
        </mxCell>
        <mxCell id="p7SZA3qrHcQrK9wnZmaH-16" value="&lt;font style=&quot;font-size: 10px;&quot;&gt;Item&amp;nbsp;&lt;br&gt;- &lt;span style=&quot;&quot; class=&quot;hljs-type&quot;&gt;name&lt;/span&gt;: String&amp;nbsp;&lt;br&gt;&lt;br&gt;+ getName(): String&amp;nbsp;&lt;/font&gt;" style="rounded=0;whiteSpace=wrap;html=1;align=left;" vertex="1" parent="1">
          <mxGeometry x="30" y="250" width="100" height="60" as="geometry" />
        </mxCell>
        <mxCell id="p7SZA3qrHcQrK9wnZmaH-17" style="edgeStyle=orthogonalEdgeStyle;rounded=0;orthogonalLoop=1;jettySize=auto;html=1;entryX=0.022;entryY=0.915;entryDx=0;entryDy=0;entryPerimeter=0;" edge="1" parent="1" source="p7SZA3qrHcQrK9wnZmaH-16" target="p7SZA3qrHcQrK9wnZmaH-13">
          <mxGeometry relative="1" as="geometry" />
        </mxCell>
        <mxCell id="p7SZA3qrHcQrK9wnZmaH-18" value="&lt;font style=&quot;font-size: 10px;&quot;&gt;LevelManager&lt;br&gt;&lt;br&gt;+ loadLevel(&lt;span style=&quot;&quot; class=&quot;hljs-keyword&quot;&gt;level&lt;/span&gt;: &lt;span style=&quot;&quot; class=&quot;hljs-type&quot;&gt;int&lt;/span&gt;):&lt;span style=&quot;&quot; class=&quot;hljs-type&quot;&gt;void&lt;/span&gt;&lt;/font&gt;" style="rounded=0;whiteSpace=wrap;html=1;align=left;" vertex="1" parent="1">
          <mxGeometry x="20" y="330" width="120" height="40" as="geometry" />
        </mxCell>
        <mxCell id="p7SZA3qrHcQrK9wnZmaH-20" value="" style="edgeStyle=orthogonalEdgeStyle;rounded=0;orthogonalLoop=1;jettySize=auto;html=1;" edge="1" parent="1" source="p7SZA3qrHcQrK9wnZmaH-19" target="p7SZA3qrHcQrK9wnZmaH-11">
          <mxGeometry relative="1" as="geometry" />
        </mxCell>
        <mxCell id="p7SZA3qrHcQrK9wnZmaH-19" value="&lt;font style=&quot;font-size: 10px;&quot;&gt;CombatManager&amp;nbsp;&lt;/font&gt;&lt;div&gt;&lt;font style=&quot;font-size: 10px;&quot;&gt;+engageCombat(player: Player, enemy: Attackable): &lt;span style=&quot;&quot; class=&quot;hljs-type&quot;&gt;void&lt;/span&gt;&lt;/font&gt;&lt;/div&gt;" style="rounded=0;whiteSpace=wrap;html=1;align=left;" vertex="1" parent="1">
          <mxGeometry x="820" y="230" width="130" height="60" as="geometry" />
        </mxCell>
        <mxCell id="p7SZA3qrHcQrK9wnZmaH-21" style="edgeStyle=orthogonalEdgeStyle;rounded=0;orthogonalLoop=1;jettySize=auto;html=1;entryX=0.137;entryY=1;entryDx=0;entryDy=0;entryPerimeter=0;" edge="1" parent="1" source="p7SZA3qrHcQrK9wnZmaH-18" target="p7SZA3qrHcQrK9wnZmaH-13">
          <mxGeometry relative="1" as="geometry" />
        </mxCell>
        <mxCell id="p7SZA3qrHcQrK9wnZmaH-24" style="edgeStyle=orthogonalEdgeStyle;rounded=0;orthogonalLoop=1;jettySize=auto;html=1;" edge="1" parent="1" source="p7SZA3qrHcQrK9wnZmaH-22" target="p7SZA3qrHcQrK9wnZmaH-11">
          <mxGeometry relative="1" as="geometry" />
        </mxCell>
        <mxCell id="p7SZA3qrHcQrK9wnZmaH-22" value="&lt;div style=&quot;&quot;&gt;&lt;pre style=&quot;font-family: &amp;quot;JetBrains Mono&amp;quot;, monospace;&quot;&gt;&lt;span&gt;&lt;font style=&quot;font-size: 10px; color: rgb(0, 0, 0);&quot;&gt;public class MonolithicAdventureGameRefactored {&lt;br&gt;    public static void main(String[] args) {&lt;br&gt;        Player player = new Player();&lt;br&gt;        Enemy monster = new Enemy(&quot;Ghoul&quot;, 10);&lt;br&gt;        Item sword = new Item(&quot;Katana&quot;);&lt;br&gt;        CombatManager combatManager = new CombatManager();&lt;br&gt;        LevelManager levelManager = new LevelManager();&lt;br&gt;        levelManager.loadLevel(1);&lt;br&gt;        player.pickUpItem(sword);&lt;br&gt;        combatManager.engageCombat(player,monster);&lt;br&gt;    }&lt;br&gt;